<svg data-v-423bf9ae="" xmlns="http://www.w3.org/2000/svg" viewBox="0 0 566 90" class="iconLeft"><!----><!----><!----><g data-v-423bf9ae="" id="7521cafa-5d58-49fe-8da1-b593d1db2173" fill="white" transform="matrix(5.395683046021815,0,0,5.395683046021815,107.78778477405353,17.589926534493483)"><path d="M8.78 7.66C8.78 5.35 6.90 4.97 5.07 4.59C3.72 4.31 2.94 4.13 2.94 3.22C2.94 2.63 3.33 2.16 4.51 2.16C5.59 2.16 6.16 2.55 6.34 3.36L8.50 3.08C8.18 1.40 7.11 0.57 4.58 0.57C2.28 0.57 0.76 1.51 0.76 3.33C0.76 5.32 2.39 5.94 4.05 6.29C5.45 6.58 6.61 6.90 6.61 7.78C6.61 8.58 5.89 8.97 4.59 8.97C3.08 8.97 2.67 8.37 2.48 7.55L0.41 7.90C0.80 9.69 1.89 10.64 4.59 10.64C7.52 10.64 8.78 9.46 8.78 7.66ZM15.18 6.75C15.18 8.41 14.67 9.18 13.61 9.18C12.66 9.18 12.08 8.33 12.08 6.75C12.08 5.17 12.59 4.38 13.65 4.38C14.62 4.38 15.18 5.18 15.18 6.75ZM17.40 6.73C17.40 4.45 16.31 2.86 13.64 2.86C11.07 2.86 9.84 4.47 9.84 6.73C9.84 9.09 11.09 10.64 13.59 10.64C16.16 10.64 17.40 9.10 17.40 6.73ZM20.97 3.00L18.76 3.00L18.76 8.01C18.76 9.35 19.33 10.64 21.18 10.64C22.22 10.64 23.10 10.22 23.59 8.96C23.59 9.31 23.67 10.36 23.69 10.50L25.82 10.50C25.79 10.33 25.76 9.27 25.76 8.81L25.76 3.00L23.53 3.00L23.53 7.08C23.53 8.27 23.00 8.97 22.13 8.97C21.25 8.97 20.97 8.46 20.97 7.41ZM32.49 10.50L34.72 10.50L34.72 5.53C34.72 4.13 34.19 2.86 32.30 2.86C31.12 2.86 30.28 3.43 29.90 4.54C29.88 3.95 29.81 3.21 29.79 3.00L27.69 3.00C27.71 3.42 27.73 3.96 27.73 4.73L27.73 10.50L29.93 10.50L29.93 6.52C29.93 5.29 30.44 4.52 31.33 4.52C32.20 4.52 32.49 5.05 32.49 6.10ZM38.78 10.64C40.17 10.64 40.98 9.98 41.24 9.14C41.24 9.56 41.29 10.12 41.34 10.50L43.47 10.50C43.43 9.87 43.41 9.24 43.41 8.85L43.41-0.48L41.23-0.48L41.23 3.32C41.23 3.58 41.24 3.92 41.26 4.21C40.98 3.39 40.18 2.86 38.99 2.86C37.04 2.86 36.06 4.35 36.06 6.72C36.06 8.86 36.76 10.64 38.78 10.64ZM39.75 9.13C38.79 9.13 38.35 8.32 38.35 6.69C38.35 5.05 38.84 4.35 39.76 4.35C40.47 4.35 41.26 4.82 41.26 6.66C41.26 8.61 40.46 9.13 39.75 9.13ZM57.04 7.66C57.04 5.35 55.16 4.97 53.33 4.59C51.98 4.31 51.20 4.13 51.20 3.22C51.20 2.63 51.59 2.16 52.77 2.16C53.84 2.16 54.42 2.55 54.60 3.36L56.76 3.08C56.43 1.40 55.37 0.57 52.84 0.57C50.54 0.57 49.01 1.51 49.01 3.33C49.01 5.32 50.65 5.94 52.30 6.29C53.70 6.58 54.87 6.90 54.87 7.78C54.87 8.58 54.15 8.97 52.85 8.97C51.34 8.97 50.93 8.37 50.74 7.55L48.66 7.90C49.06 9.69 50.15 10.64 52.85 10.64C55.78 10.64 57.04 9.46 57.04 7.66ZM58.56 10.50L60.73 10.50L60.73 3.00L58.56 3.00ZM58.56 2.06L60.73 2.06L60.73 0.01L58.56 0.01ZM65.69 10.64C68.00 10.64 68.73 9.55 69.01 8.33L66.93 8.20C66.81 8.93 66.44 9.24 65.76 9.24C64.71 9.24 64.37 8.30 64.37 7.35L64.37 7.15L69.12 7.15C69.12 7.15 69.15 6.83 69.15 6.50C69.15 4.41 68.29 2.86 65.70 2.86C63.70 2.86 62.05 3.78 62.05 6.71C62.05 9.35 63.35 10.64 65.69 10.64ZM65.66 4.17C66.42 4.17 66.89 4.56 66.89 5.87L66.89 5.89L64.37 5.89C64.41 4.56 64.95 4.17 65.66 4.17ZM74.82 10.50L77.42 3.00L75.26 3.00L74.07 7L73.57 8.81L73.05 7L71.76 3.00L69.57 3.00L72.25 10.50ZM81.47 10.64C83.78 10.64 84.50 9.55 84.78 8.33L82.71 8.20C82.59 8.93 82.22 9.24 81.54 9.24C80.49 9.24 80.15 8.30 80.15 7.35L80.15 7.15L84.90 7.15C84.90 7.15 84.92 6.83 84.92 6.50C84.92 4.41 84.07 2.86 81.48 2.86C79.48 2.86 77.83 3.78 77.83 6.71C77.83 9.35 79.13 10.64 81.47 10.64ZM81.44 4.17C82.19 4.17 82.67 4.56 82.67 5.87L82.67 5.89L80.15 5.89C80.19 4.56 80.72 4.17 81.44 4.17Z"></path></g><!----><g data-v-423bf9ae="" id="d22825c4-1dff-401c-bf19-70aadbd205bd" transform="matrix(4.5,0,0,4.5,-9,-9)" stroke="none" fill="white"><path d="M12 2C6.5 2 2 6.5 2 12s4.5 10 10 10 10-4.5 10-10S17.5 2 12 2zm1 1.9c.6 0 1 .4 1 1s-.4 1-1 1-1-.4-1-1 .4-1 1-1zM8 5c.6 0 1 .4 1 1s-.4 1-1 1-1-.4-1-1 .4-1 1-1zm-2 8c-.6 0-1-.4-1-1s.4-1 1-1 1 .4 1 1-.4 1-1 1zm2 6c-.6 0-1-.4-1-1s.4-1 1-1 1 .4 1 1-.4 1-1 1zm2-4c-.6 0-1-.4-1-1s.4-1 1-1 1 .4 1 1-.4 1-1 1zm2-4c-.6 0-1-.4-1-1s.4-1 1-1 1 .4 1 1-.4 1-1 1zm2 8c-.6 0-1-.4-1-1s.4-1 1-1 1 .4 1 1-.4 1-1 1zm2-10c-.6 0-1-.4-1-1s.4-1 1-1 1 .4 1 1-.4 1-1 1zm2 5c-.6 0-1-.4-1-1s.4-1 1-1 1 .4 1 1-.4 1-1 1z"></path></g><!----></svg>